<svg id="Layer_1" data-name="Layer 1" xmlns="http://www.w3.org/2000/svg" viewBox="0 0 60 60"><defs><style>.cls-1{fill:#d1e3eb;}.cls-2{fill:#b5b5b6;}.cls-3{fill:#fff;}.cls-4{fill:none;stroke:#d1d4dc;stroke-miterlimit:10;stroke-width:0.5px;}.cls-5{fill:#8f1a1e;}.cls-6{fill:#727372;}.cls-7{fill:#d1d4dc;}.cls-8{fill:#14487d;}.cls-9{fill:#73c1c4;}</style></defs><title>Buy with Cash, SRS and CPF funds</title><circle class="cls-1" cx="35.4" cy="33.09" r="24.39"/><rect class="cls-2" x="7.86" y="2.52" width="30.79" height="44.82" rx="0.83" ry="0.83"/><rect class="cls-3" x="3.2" y="11.77" width="40.11" height="26.32" transform="translate(48.19 1.67) rotate(90)"/><line class="cls-4" x1="13.79" y1="20.04" x2="23.65" y2="20.04"/><line class="cls-4" x1="13.79" y1="23.8" x2="23.65" y2="23.8"/><line class="cls-4" x1="13.79" y1="27.38" x2="23.65" y2="27.38"/><path class="cls-5" d="M17.83,9.55h0a.78.78,0,0,0,1.06.44h0a.77.77,0,0,1,1,1h0a.78.78,0,0,0,.44,1.06h0a.77.77,0,0,1,0,1.46h0a.78.78,0,0,0-.44,1.06h0a.77.77,0,0,1-1,1h0a.77.77,0,0,0-1.06.44h0a.77.77,0,0,1-1.45,0h0a.78.78,0,0,0-1.07-.44h0a.78.78,0,0,1-1-1h0a.76.76,0,0,0-.44-1.06h0a.78.78,0,0,1,0-1.46h0A.77.77,0,0,0,14.28,11h0a.77.77,0,0,1,1-1h0a.79.79,0,0,0,1.07-.44h0A.77.77,0,0,1,17.83,9.55Z"/><path class="cls-2" d="M35.37,52.11a8.91,8.91,0,0,1-8.73-9.06v-.32L31.49,28.2H44.78l4.85,14.53v.32a8.92,8.92,0,0,1-8.73,9.06Z"/><path class="cls-3" d="M40.9,50.1H35.37a6.9,6.9,0,0,1-6.73-7.05l4.29-12.84H43.34l4.29,12.84A6.9,6.9,0,0,1,40.9,50.1Z"/><path class="cls-2" d="M33.19,30a2.56,2.56,0,0,1-1.84-.78L27.8,25.46a2.55,2.55,0,0,1-.49-2.76,2.52,2.52,0,0,1,2.33-1.54h17a2.54,2.54,0,0,1,1.83,4.3l-3.54,3.71a2.56,2.56,0,0,1-1.84.78Z"/><path class="cls-3" d="M43.08,28H33.19a.52.52,0,0,1-.39-.17l-3.55-3.71a.54.54,0,0,1,.39-.91h17a.54.54,0,0,1,.38.91l-3.54,3.71A.52.52,0,0,1,43.08,28Z"/><rect class="cls-6" x="30.71" y="27.95" width="14.95" height="2.24" rx="0.98" ry="0.98"/><rect class="cls-2" x="34.61" y="38.32" width="1.6" height="5.34"/><rect class="cls-2" x="37.28" y="38.32" width="1.6" height="5.34"/><rect class="cls-2" x="39.94" y="38.32" width="1.6" height="5.34"/><polygon class="cls-2" points="42.86 38.37 38.08 35.45 33.29 38.37 42.86 38.37"/><rect class="cls-2" x="33.69" y="43.55" width="8.88" height="0.65"/><rect class="cls-2" x="33.21" y="44.2" width="9.84" height="0.65"/><path class="cls-7" d="M19.23,43.05a9,9,0,1,1-1.16-4.45,9.76,9.76,0,0,1,.84,2A9.18,9.18,0,0,1,19.23,43.05Z"/><path class="cls-8" d="M18.31,42.14a9.05,9.05,0,1,1-1.17-4.45,8.86,8.86,0,0,1,.84,2A9.18,9.18,0,0,1,18.31,42.14Z"/><path class="cls-9" d="M9.26,49.19A7.05,7.05,0,1,1,15.4,38.68a7.13,7.13,0,0,1,.65,1.57,7.08,7.08,0,0,1-6.79,8.94Z"/><path class="cls-3" d="M7,45.41a2,2,0,0,1-.56-1.56v-.31h2v.22a1,1,0,0,0,.19.69.69.69,0,0,0,.51.2.62.62,0,0,0,.5-.22.77.77,0,0,0,.18-.52.79.79,0,0,0-.25-.6,2.22,2.22,0,0,0-.6-.39l-.8-.33a3.36,3.36,0,0,1-.79-.43,2,2,0,0,1-.61-.69,2.3,2.3,0,0,1-.24-1.12,2.22,2.22,0,0,1,2.06-2.44v-.65h1v.65a2.47,2.47,0,0,1,1.64.68,2.54,2.54,0,0,1,.5,1.73h-2v-.17a1.15,1.15,0,0,0-.14-.59.48.48,0,0,0-.45-.25.57.57,0,0,0-.5.22.81.81,0,0,0-.16.47.78.78,0,0,0,.26.62A2.41,2.41,0,0,0,9.5,41c.26.11.53.22.83.32a3.35,3.35,0,0,1,.82.42,2.17,2.17,0,0,1,.63.71A2.3,2.3,0,0,1,12,43.63a2.18,2.18,0,0,1-.6,1.7A3,3,0,0,1,9.68,46v1h-1V46A2.87,2.87,0,0,1,7,45.41Z"/></svg>