<svg id="Layer_1" data-name="Layer 1" xmlns="http://www.w3.org/2000/svg" viewBox="0 0 60 60"><defs><style>.cls-1{fill:#d1e3eb;}.cls-2{fill:#b5b5b6;}.cls-3{fill:#fff;}.cls-4{fill:#8f1a1e;}.cls-5,.cls-9{fill:none;}.cls-5{stroke:#d1d4dc;stroke-miterlimit:10;stroke-width:0.5px;}.cls-6{fill:#d1d4dc;}.cls-7{fill:#73c1c4;}.cls-8{fill:#14487d;}.cls-9{stroke:#fff;stroke-linecap:round;stroke-linejoin:round;}</style></defs><title>Credit rating</title><circle class="cls-1" cx="24.53" cy="32.9" r="24.39"/><rect class="cls-2" x="17.01" y="3.93" width="33.36" height="46.18" rx="0.83" ry="0.83"/><rect class="cls-3" x="13.03" y="12.77" width="41.33" height="28.51" transform="translate(60.72 -6.67) rotate(90)"/><rect class="cls-4" x="30.23" y="2.71" width="7.57" height="5.5"/><line class="cls-5" x1="23.13" y1="34.8" x2="44.25" y2="34.8"/><line class="cls-5" x1="23.13" y1="38.18" x2="44.25" y2="38.18"/><line class="cls-5" x1="23.13" y1="41.55" x2="44.25" y2="41.55"/><polygon class="cls-6" points="50.32 28.02 44.43 31.12 45.55 24.55 40.78 19.9 47.37 18.94 50.32 12.97 53.27 18.94 59.87 19.9 55.09 24.55 56.22 31.12 50.32 28.02"/><polygon class="cls-6" points="34.17 28.02 28.27 31.12 29.4 24.55 24.63 19.9 31.22 18.94 34.17 12.97 37.12 18.94 43.71 19.9 38.94 24.55 40.07 31.12 34.17 28.02"/><polygon class="cls-6" points="18.02 28.02 12.12 31.12 13.25 24.55 8.47 19.9 15.07 18.94 18.02 12.97 20.97 18.94 27.56 19.9 22.79 24.55 23.91 31.12 18.02 28.02"/><polygon class="cls-7" points="49.37 14.99 51.56 19.43 56.46 20.14 52.91 23.59 53.75 28.47 49.37 26.17 44.99 28.47 45.83 23.59 42.28 20.14 47.18 19.43 49.37 14.99"/><polygon class="cls-7" points="33.22 14.99 35.41 19.43 40.3 20.14 36.76 23.59 37.6 28.47 33.22 26.17 28.84 28.47 29.67 23.59 26.13 20.14 31.02 19.43 33.22 14.99"/><polygon class="cls-7" points="17.06 14.99 19.25 19.43 24.15 20.14 20.61 23.59 21.44 28.47 17.06 26.17 12.68 28.47 13.52 23.59 9.97 20.14 14.87 19.43 17.06 14.99"/><polygon class="cls-8" points="49.37 14.99 51.56 19.43 56.46 20.14 52.91 23.59 53.75 28.47 49.37 26.17 44.99 28.47 45.83 23.59 42.28 20.14 47.18 19.43 49.37 14.99"/><polygon class="cls-8" points="33.22 14.99 35.41 19.43 40.3 20.14 36.76 23.59 37.6 28.47 33.22 26.17 28.84 28.47 29.67 23.59 26.13 20.14 31.02 19.43 33.22 14.99"/><polygon class="cls-8" points="17.06 14.99 19.25 19.43 24.15 20.14 20.61 23.59 21.44 28.47 17.06 26.17 12.68 28.47 13.52 23.59 9.97 20.14 14.87 19.43 17.06 14.99"/><polygon class="cls-8" points="49.37 27.46 43.47 30.56 44.6 23.99 39.83 19.34 46.42 18.38 49.37 12.41 52.32 18.38 58.91 19.34 54.14 23.99 55.27 30.56 49.37 27.46"/><polygon class="cls-8" points="33.22 27.46 27.32 30.56 28.44 23.99 23.67 19.34 30.27 18.38 33.22 12.41 36.16 18.38 42.76 19.34 37.99 23.99 39.11 30.56 33.22 27.46"/><polygon class="cls-8" points="17.06 27.46 11.16 30.56 12.29 23.99 7.52 19.34 14.11 18.38 17.06 12.41 20.01 18.38 26.61 19.34 21.83 23.99 22.96 30.56 17.06 27.46"/><polygon class="cls-7" points="46.13 23.49 42.89 20.34 47.37 19.69 49.37 15.63 51.37 19.69 55.84 20.34 52.61 23.49 53.37 27.95 49.37 25.84 45.37 27.95 46.13 23.49"/><polygon class="cls-7" points="33.22 25.84 29.21 27.95 29.98 23.49 26.74 20.34 31.21 19.69 33.22 15.63 35.22 19.69 39.69 20.34 36.45 23.49 37.22 27.95 33.22 25.84"/><polygon class="cls-7" points="13.82 23.49 10.59 20.34 15.06 19.69 17.06 15.63 19.06 19.69 23.54 20.34 20.3 23.49 21.06 27.95 17.06 25.84 13.06 27.95 13.82 23.49"/><path class="cls-9" d="M47.19,22.36a3.06,3.06,0,0,0,4.35,0"/><path class="cls-9" d="M31,22.36a3.06,3.06,0,0,0,4.35,0"/><path class="cls-9" d="M14.89,22.36a3.06,3.06,0,0,0,4.35,0"/></svg>