<svg id="Layer_1" data-name="Layer 1" xmlns="http://www.w3.org/2000/svg" viewBox="0 0 60 60"><defs><style>.cls-1{fill:#d1e3eb;}.cls-2{fill:#b5b5b6;}.cls-3{fill:#fff;}.cls-4{fill:#d1d4dc;}.cls-5{fill:#14487d;}.cls-6{fill:#73c1c4;}.cls-7{fill:#8f1a1e;}</style></defs><title>Earn regular interest</title><circle class="cls-1" cx="30.69" cy="29.79" r="24.39"/><path class="cls-2" d="M42.05,13.33H1a.83.83,0,0,0-.82.83V45.42a.82.82,0,0,0,.82.82H42.05a.83.83,0,0,0,.83-.82V14.16A.83.83,0,0,0,42.05,13.33Z"/><rect class="cls-3" x="2.47" y="15.63" width="38.11" height="28.31"/><rect class="cls-2" x="30.69" y="11.01" width="2.25" height="7.04" rx="1.12" ry="1.12"/><rect class="cls-2" x="8.32" y="33.26" width="3.51" height="3.51"/><rect class="cls-2" x="8.32" y="22.8" width="3.51" height="3.51"/><rect class="cls-2" x="15.86" y="33.26" width="3.51" height="3.51"/><rect class="cls-2" x="15.86" y="22.8" width="3.51" height="3.51"/><rect class="cls-2" x="23.39" y="33.26" width="3.51" height="3.51"/><rect class="cls-2" x="23.39" y="22.8" width="3.51" height="3.51"/><path class="cls-4" d="M59.83,42.75a11.83,11.83,0,1,1-1.52-5.83,11.7,11.7,0,0,1,1.52,5.83Z"/><path class="cls-5" d="M58.62,41.55a11.62,11.62,0,1,1-.42-3.17A12.25,12.25,0,0,1,58.62,41.55Z"/><circle class="cls-6" cx="46.77" cy="41.55" r="9.65"/><path class="cls-3" d="M43.84,45.83a2.61,2.61,0,0,1-.72-2v-.4h2.66v.28a1.25,1.25,0,0,0,.25.91.89.89,0,0,0,.66.25.79.79,0,0,0,.66-.28,1,1,0,0,0,.23-.67,1,1,0,0,0-.32-.8,2.75,2.75,0,0,0-.8-.51c-.32-.14-.66-.29-1-.43a4.54,4.54,0,0,1-1-.56,2.7,2.7,0,0,1-.79-.91,3,3,0,0,1-.32-1.46A2.91,2.91,0,0,1,46,36v-.85h1.36V36a3.25,3.25,0,0,1,2.14.89,3.36,3.36,0,0,1,.66,2.27H47.56V39a1.5,1.5,0,0,0-.19-.78.63.63,0,0,0-.59-.33.76.76,0,0,0-.65.29,1,1,0,0,0-.2.63,1,1,0,0,0,.33.81,3.46,3.46,0,0,0,.83.51c.34.14.69.28,1.08.41a4.58,4.58,0,0,1,1.08.55,3,3,0,0,1,.83.93,3.11,3.11,0,0,1,.33,1.54,2.88,2.88,0,0,1-.78,2.22,3.88,3.88,0,0,1-2.3.89V48H46V46.62A3.74,3.74,0,0,1,43.84,45.83Z"/><circle class="cls-7" cx="32.94" cy="24.35" r="2.31"/><circle class="cls-7" cx="32.94" cy="35.02" r="2.31"/><rect class="cls-2" x="10.11" y="11.01" width="2.25" height="7.04" rx="1.12" ry="1.12"/></svg>