<svg id="Layer_1" data-name="Layer 1" xmlns="http://www.w3.org/2000/svg" viewBox="0 0 60 60"><defs><style>.cls-1{fill:#d4e6ee;}.cls-2{fill:#d2d5dc;}.cls-3{fill:#08457e;}.cls-4{fill:#71c2c7;}.cls-5{fill:#fff;}.cls-6{fill:#727373;}.cls-7{fill:#b6b6b6;}</style></defs><title>Investment amount-01</title><circle class="cls-1" cx="24.09" cy="32.1" r="23.8"/><rect class="cls-2" x="22.09" y="8.2" width="37.1" height="19.5"/><rect class="cls-3" x="21.19" y="7.2" width="37.1" height="19.5"/><rect class="cls-2" x="20.09" y="6.1" width="37.1" height="19.5"/><rect class="cls-3" x="19.09" y="5.1" width="37.1" height="19.5"/><rect class="cls-4" x="21.39" y="7.4" width="32.5" height="15"/><circle class="cls-5" cx="37.69" cy="14.9" r="5.8"/><path class="cls-6" d="M35.79,17.6a1.73,1.73,0,0,1-.5-1.3V16H37v.2a.85.85,0,0,0,.2.6.5.5,0,0,0,.8,0,.6.6,0,0,0,.1-.4.76.76,0,0,0-.2-.5,2.19,2.19,0,0,0-.5-.3,4.88,4.88,0,0,0-.7-.3,2.51,2.51,0,0,1-.7-.4,1,1,0,0,1-.5-.6,2.39,2.39,0,0,1-.2-.9,1.77,1.77,0,0,1,1.7-2v-.5h.9v.5a2.59,2.59,0,0,1,1.4.6,2,2,0,0,1,.4,1.4h-1.6v-.1a.75.75,0,0,0-.1-.5.5.5,0,0,0-.8,0,.6.6,0,0,0-.1.4.76.76,0,0,0,.2.5,2.19,2.19,0,0,0,.5.3,4.88,4.88,0,0,0,.7.3,2.51,2.51,0,0,1,.7.4c.2.2.4.3.5.6a2.51,2.51,0,0,1,.2,1,2,2,0,0,1-.5,1.4,2.62,2.62,0,0,1-1.5.6v.8H37v-.8A4.73,4.73,0,0,1,35.79,17.6Z"/><polygon class="cls-7" points="42.79 38.6 5.29 38.6 11.49 33.7 36.59 33.7 42.79 38.6"/><polygon class="cls-6" points="36.59 33.7 36.59 38.6 42.79 38.6 36.59 33.7"/><polygon class="cls-6" points="11.49 33.7 11.49 38.6 5.29 38.6 11.49 33.7"/></svg>