<svg id="Layer_1" data-name="Layer 1" xmlns="http://www.w3.org/2000/svg" viewBox="0 0 60 60"><defs><style>.cls-1{fill:#d1e3eb;}.cls-2{fill:#d1d4dc;}.cls-3{fill:#b5b5b6;}.cls-4{fill:#fff;}.cls-5{fill:#727372;}.cls-6{fill:#14487d;}.cls-7{fill:#73c1c4;}.cls-8{fill:#8f1a1e;}</style></defs><title>Risk-free investment</title><circle class="cls-1" cx="31.35" cy="30" r="24.39"/><rect class="cls-2" x="2.12" y="14.26" width="42.21" height="22.24" transform="translate(46.44 50.76) rotate(180)"/><rect class="cls-3" x="1.08" y="13.11" width="42.21" height="22.24" transform="translate(44.38 48.47) rotate(180)"/><rect class="cls-4" x="3.66" y="15.69" width="37.06" height="17.09"/><circle class="cls-5" cx="22.19" cy="24.23" r="6.56"/><path class="cls-4" d="M20.06,27.35a1.9,1.9,0,0,1-.53-1.49v-.29h1.94v.21a.93.93,0,0,0,.18.66.62.62,0,0,0,.48.19.57.57,0,0,0,.48-.21.82.82,0,0,0-.06-1.07A2,2,0,0,0,22,25l-.76-.32a3.44,3.44,0,0,1-.76-.4,2,2,0,0,1-.58-.67,2.16,2.16,0,0,1-.23-1.06,2.12,2.12,0,0,1,2-2.33v-.63h1v.63a2.35,2.35,0,0,1,1.56.65,2.43,2.43,0,0,1,.48,1.65H22.77v-.16a1.15,1.15,0,0,0-.14-.57.46.46,0,0,0-.43-.24.53.53,0,0,0-.47.21.82.82,0,0,0,.09,1.05,2.19,2.19,0,0,0,.6.37l.79.3a3.2,3.2,0,0,1,.78.4,2.1,2.1,0,0,1,.61.68,2.24,2.24,0,0,1,.24,1.12,2.1,2.1,0,0,1-.57,1.62,2.87,2.87,0,0,1-1.67.65v1h-1v-1A2.72,2.72,0,0,1,20.06,27.35Z"/><ellipse class="cls-4" cx="10.71" cy="42.71" rx="5.62" ry="3.09"/><ellipse class="cls-3" cx="10.71" cy="41.13" rx="5.62" ry="3.09"/><ellipse class="cls-4" cx="10.71" cy="39.97" rx="5.62" ry="3.09"/><ellipse class="cls-3" cx="10.71" cy="38.4" rx="5.62" ry="3.09"/><ellipse class="cls-4" cx="10.71" cy="37.24" rx="5.62" ry="3.09"/><ellipse class="cls-3" cx="10.71" cy="35.66" rx="5.62" ry="3.09"/><ellipse class="cls-4" cx="10.71" cy="34.5" rx="5.62" ry="3.09"/><ellipse class="cls-3" cx="10.71" cy="32.92" rx="5.62" ry="3.09"/><ellipse class="cls-4" cx="10.71" cy="31.76" rx="5.62" ry="3.09"/><ellipse class="cls-3" cx="10.71" cy="30.19" rx="5.62" ry="3.09"/><path class="cls-2" d="M47.86,52.91c11.06-2.38,11.06-19.45,11.06-19.45L47.86,29.31l-11,4.15S36.81,50.53,47.86,52.91Z"/><path class="cls-6" d="M46.62,28.63,35.56,32.78s0,17.06,11.06,19.44c11.05-2.38,11.05-19.44,11.05-19.44Z"/><path class="cls-7" d="M46.62,50.17c-7.31-2-8.72-12.28-9-16l9-3.37,9,3.37C55.33,37.89,53.92,48.22,46.62,50.17Z"/><path class="cls-6" d="M52.49,30.09l-5.87-2.21-5.88,2.21s0,.28,0,.73l5.85-2.19,5.84,2.19C52.49,30.37,52.49,30.09,52.49,30.09Z"/><path class="cls-4" d="M44.81,45a1.66,1.66,0,0,1-1.17-.49l-2.46-2.45a1.66,1.66,0,0,1,1.18-2.83,1.65,1.65,0,0,1,1.17.48L46,42.2a1.64,1.64,0,0,1,0,2.34A1.66,1.66,0,0,1,44.81,45Z"/><rect class="cls-4" x="43.32" y="39.22" width="10.18" height="1.11" transform="translate(-13.94 45.88) rotate(-45)"/><line class="cls-4" x1="52.01" y1="36.17" x2="44.81" y2="43.37"/><path class="cls-4" d="M44.81,45a1.66,1.66,0,0,1-1.17-.49,1.64,1.64,0,0,1,0-2.34l7.2-7.2a1.64,1.64,0,0,1,2.34,0,1.64,1.64,0,0,1,0,2.34L46,44.54A1.66,1.66,0,0,1,44.81,45Z"/><path class="cls-8" d="M44.81,44.47a1.07,1.07,0,0,1-.78-.32,1.1,1.1,0,0,1,0-1.56l7.2-7.2A1.1,1.1,0,0,1,52.79,37l-7.2,7.2A1.07,1.07,0,0,1,44.81,44.47Z"/><path class="cls-8" d="M44.81,44.47a1.07,1.07,0,0,1-.78-.32L41.57,41.7a1.11,1.11,0,0,1,1.57-1.57l2.45,2.46a1.1,1.1,0,0,1,0,1.56A1.07,1.07,0,0,1,44.81,44.47Z"/></svg>