<svg id="Layer_1" data-name="Layer 1" xmlns="http://www.w3.org/2000/svg" viewBox="0 0 60 60"><defs><style>.cls-1{fill:#d1e3eb;}.cls-2{fill:#d1d4dc;}.cls-3{fill:#14487d;}.cls-4{fill:#73c1c4;}.cls-10,.cls-5{fill:none;stroke-linecap:round;stroke-linejoin:round;}.cls-5{stroke:#8f1a1e;}.cls-6{fill:#8f1a1e;}.cls-7{fill:#b5b5b6;}.cls-8{fill:#fff;}.cls-9{fill:#727372;}.cls-10{stroke:#b5b5b6;stroke-dasharray:0.1 2;}</style></defs><title>Sound way to diversify your investment portfolios</title><circle class="cls-1" cx="28.73" cy="30" r="24.39"/><path class="cls-2" d="M48,53.67A6.65,6.65,0,0,1,41.36,47V44a6.68,6.68,0,0,1,4.86-6.4,3.72,3.72,0,0,0,2.27-3.4,3.06,3.06,0,0,1,.9-2.22,3.15,3.15,0,0,1,2.21-.93,3,3,0,0,1,1,.18,4.29,4.29,0,0,1,2.08,1.56,6.66,6.66,0,0,1,1.21,4.57,3.48,3.48,0,0,1,3.34,3.47,3.6,3.6,0,0,1-.16,1.05,3.49,3.49,0,0,1,.7,2.1,3.43,3.43,0,0,1-.37,1.57,3.5,3.5,0,0,1,.37,1.58,3.46,3.46,0,0,1-.7,2.09,3.66,3.66,0,0,1,.16,1.05,3.37,3.37,0,0,1-3.47,3.36Z"/><path class="cls-3" d="M46.82,53.17a6.65,6.65,0,0,1-6.64-6.64v-3a6.68,6.68,0,0,1,3.31-5.74A6.82,6.82,0,0,1,45,37.14a3.71,3.71,0,0,0,2.27-3.4,3.14,3.14,0,0,1,3.11-3.15,3,3,0,0,1,1,.18,4.24,4.24,0,0,1,2.08,1.56,6.66,6.66,0,0,1,1.21,4.57,3.48,3.48,0,0,1,3.35,3.47,3.3,3.3,0,0,1-.17,1.05,3.45,3.45,0,0,1,.33,3.67,3.48,3.48,0,0,1,.38,1.58,3.4,3.4,0,0,1-.71,2.09,3.35,3.35,0,0,1,.17,1.05,3.38,3.38,0,0,1-3.48,3.36Z"/><path class="cls-4" d="M56.73,43.52h0A1.57,1.57,0,0,0,55.15,42h-.54a1.58,1.58,0,1,0,0-3.15h-2.5A4.74,4.74,0,0,0,52,33.44a2.38,2.38,0,0,0-1.17-.88,1.22,1.22,0,0,0-1.61,1.16,5.74,5.74,0,0,1-3.48,5.21,4.63,4.63,0,0,0-1.28.51h0a4.75,4.75,0,0,0-2.37,4.1v3a4.76,4.76,0,0,0,4.74,4.74h7.79a1.49,1.49,0,0,0,1.58-1.46h0a1.58,1.58,0,0,0-1.58-1.57h.54a1.58,1.58,0,1,0,0-3.15A1.58,1.58,0,0,0,56.73,43.52Z"/><line class="cls-5" x1="31.41" y1="34.06" x2="36.92" y2="34.06"/><polygon class="cls-6" points="36.41 35.81 39.43 34.06 36.41 32.32 36.41 35.81"/><line class="cls-5" x1="31.07" y1="23.79" x2="35.41" y2="20.41"/><polygon class="cls-6" points="36.08 22.1 37.4 18.86 33.94 19.34 36.08 22.1"/><line class="cls-5" x1="31.07" y1="44.49" x2="35.41" y2="47.87"/><polygon class="cls-6" points="33.94 48.93 37.4 49.41 36.08 46.18 33.94 48.93"/><path class="cls-7" d="M13.23,48.08a10.23,10.23,0,0,1-10-10.41v-.31l5.71-17.1h15.3l5.72,17.1v.31a10.24,10.24,0,0,1-10,10.41Z"/><path class="cls-8" d="M19.91,46.19H13.23a8.33,8.33,0,0,1-8.12-8.52l5.18-15.51H22.85L28,37.67A8.34,8.34,0,0,1,19.91,46.19Z"/><path class="cls-7" d="M10.54,21.33a2.57,2.57,0,0,1-1.84-.79L4.42,16.06a2.55,2.55,0,0,1,1.84-4.31H26.77a2.55,2.55,0,0,1,1.85,4.31l-4.28,4.48a2.57,2.57,0,0,1-1.85.79Z"/><path class="cls-8" d="M22.49,19.43H10.54a.69.69,0,0,1-.47-.2L5.79,14.74a.65.65,0,0,1,.47-1.09H26.77a.64.64,0,0,1,.47,1.09L23,19.23A.67.67,0,0,1,22.49,19.43Z"/><rect class="cls-9" x="7.54" y="19.43" width="18.06" height="2.7" rx="1.33" ry="1.33"/><path class="cls-9" d="M13.67,38.43a2.61,2.61,0,0,1-.72-2V36h2.64v.28a1.27,1.27,0,0,0,.25.91.9.9,0,0,0,.66.25.81.81,0,0,0,.65-.28,1.05,1.05,0,0,0,.23-.68,1,1,0,0,0-.32-.79,2.91,2.91,0,0,0-.79-.51c-.32-.14-.66-.28-1-.42a4.34,4.34,0,0,1-1-.56,2.76,2.76,0,0,1-.79-.9,3,3,0,0,1-.32-1.46,2.89,2.89,0,0,1,2.69-3.18v-.85h1.35v.85a3.15,3.15,0,0,1,2.13.89,3.29,3.29,0,0,1,.66,2.25H17.36v-.22a1.49,1.49,0,0,0-.19-.77.62.62,0,0,0-.58-.33.73.73,0,0,0-.65.29,1,1,0,0,0-.2.62,1,1,0,0,0,.33.81,3.09,3.09,0,0,0,.82.5c.34.14.7.28,1.08.41a4.71,4.71,0,0,1,1.07.55,3,3,0,0,1,.83.93,3,3,0,0,1,.33,1.53,2.87,2.87,0,0,1-.78,2.21,3.91,3.91,0,0,1-2.29.88v1.32H15.78V39.21A3.75,3.75,0,0,1,13.67,38.43Z"/><line class="cls-10" x1="0.7" y1="38.57" x2="33.03" y2="38.57"/><line class="cls-10" x1="0.7" y1="29.77" x2="33.03" y2="29.77"/></svg>