<svg id="Layer_1" data-name="Layer 1" xmlns="http://www.w3.org/2000/svg" viewBox="0 0 60 60"><defs><style>.cls-1{fill:#d1e3eb;}.cls-2{fill:#b5b5b6;}.cls-3{fill:#fff;}.cls-4{fill:none;stroke:#d1d4dc;stroke-miterlimit:10;stroke-width:0.5px;}.cls-5{font-size:20.56px;font-family:Roboto-Black, Roboto;}.cls-5,.cls-9{fill:#8f1a1e;}.cls-6{fill:#d1d4dc;}.cls-7{fill:#14487d;}.cls-8{fill:#73c1c4;}.cls-9{stroke:#fff;stroke-linecap:round;stroke-linejoin:round;stroke-width:3px;}</style></defs><title>Tax exepmt</title><circle class="cls-1" cx="24.53" cy="33.29" r="24.39"/><rect class="cls-2" x="12.2" y="2.31" width="34.57" height="47.86" rx="0.83" ry="0.83"/><rect class="cls-3" x="8.07" y="11.47" width="42.84" height="29.55" transform="translate(55.73 -3.24) rotate(90)"/><line class="cls-4" x1="18.54" y1="34.31" x2="40.43" y2="34.31"/><line class="cls-4" x1="18.54" y1="37.81" x2="40.43" y2="37.81"/><line class="cls-4" x1="18.54" y1="41.3" x2="40.43" y2="41.3"/><text class="cls-5" transform="translate(18.4 26.4)">%</text><path class="cls-6" d="M59.87,34.53a12.45,12.45,0,1,1-1.61-6.12,12.93,12.93,0,0,1,1.16,2.79A12.62,12.62,0,0,1,59.87,34.53Z"/><path class="cls-7" d="M58.59,33.91A12.43,12.43,0,1,1,57,27.78a12.31,12.31,0,0,1,1.15,2.8A12.17,12.17,0,0,1,58.59,33.91Z"/><circle class="cls-8" cx="46.14" cy="33.91" r="10.14"/><line class="cls-9" x1="41.68" y1="29.45" x2="50.59" y2="38.36"/><line class="cls-9" x1="41.68" y1="38.36" x2="50.59" y2="29.45"/></svg>