<svg xmlns="http://www.w3.org/2000/svg" viewBox="0 0 51.99 51.09"><defs><style>.cls-1{fill:#d1e3eb;}.cls-2{fill:#73c1c4;stroke:#14487d;stroke-width:1.8px;}.cls-2,.cls-3,.cls-4{stroke-miterlimit:10;}.cls-3,.cls-4{fill:#fff;stroke:#b5b5b6;}.cls-3{stroke-width:2.55px;}.cls-4{stroke-width:1.88px;}.cls-5{fill:#d1d4dc;}.cls-6{fill:#8f1a1e;}</style></defs><title>Layer 2</title><g id="Layer_2" data-name="Layer 2"><g id="Layer_1-2" data-name="Layer 1"><g id="Layer_2-2" data-name="Layer 2"><g id="Layer_1-2-2" data-name="Layer 1-2"><circle class="cls-1" cx="24.39" cy="26.7" r="24.39"/><path class="cls-2" d="M21.28,19.73a1.89,1.89,0,0,1,0,2.66L11.67,32A1.88,1.88,0,0,1,9,32H9L4.12,27.12a1.89,1.89,0,0,1,0-2.66S15.06,13.54,21.28,19.73Z"/><path class="cls-2" d="M32.26,30.71a1.89,1.89,0,0,0-2.66,0L20,40.32A1.89,1.89,0,0,0,20,43l4.89,4.89a1.89,1.89,0,0,0,2.66,0S38.48,36.93,32.26,30.71Z"/><path class="cls-3" d="M19.55,42.54c-4.44,4.44-13.09,3-13.09,3s-1.46-8.66,3-13.1,10.3-5.77,13.09-3S24,38.11,19.55,42.54Z"/><ellipse class="cls-4" cx="32.96" cy="19.03" rx="22.51" ry="12.14" transform="translate(-3.8 28.88) rotate(-45)"/><circle class="cls-5" cx="35.31" cy="18.23" r="6.24"/><circle class="cls-2" cx="35.31" cy="16.89" r="5.46"/><rect class="cls-6" x="10.53" y="32.01" width="15.27" height="3.65" rx="1.82" ry="1.82" transform="translate(-18.6 22.76) rotate(-45)"/></g></g></g></g></svg>