<svg width="24" height="24" xmlns="http://www.w3.org/2000/svg" xmlns:xlink="http://www.w3.org/1999/xlink"><defs><path d="M12 21.167c-3.431 0-6.222-2.879-6.222-6.417S8.568 8.333 12 8.333c3.431 0 6.222 2.879 6.222 6.417s-2.79 6.417-6.222 6.417zM11.67 4.6a.878.878 0 0 0 .66 0l1.994-.823-1.05 1.805h-2.549l-1.05-1.805 1.994.823zm4.662 3.223A8.31 8.31 0 0 1 20 14.75c0 4.548-3.59 8.25-8 8.25s-8-3.702-8-8.25a8.31 8.31 0 0 1 3.668-6.926l-2.064-.426.348-1.796 3.08.634-2.238-3.847a.938.938 0 0 1 .085-1.067.875.875 0 0 1 1.007-.257L12 2.763l4.114-1.698a.872.872 0 0 1 1.007.257.938.938 0 0 1 .085 1.067l-2.238 3.847 3.08-.634.348 1.796-2.064.426zm-3.443 2.343H11.11v.963c-1.013.213-1.778 1.138-1.778 2.245 0 1.263.998 2.292 2.223 2.292h.888c.246 0 .445.205.445.458s-.2.458-.445.458h-3.11v1.834h1.777v.916h1.778v-.963c1.013-.213 1.778-1.139 1.778-2.245 0-1.263-.998-2.292-2.223-2.292h-.888a.452.452 0 0 1-.445-.458c0-.253.2-.458.445-.458h3.11v-1.834H12.89v-.916z" id="a"/></defs><use fill="#4A4A4A" xlink:href="#a" fill-rule="evenodd"/></svg>