<svg width="24" height="24" xmlns="http://www.w3.org/2000/svg" xmlns:xlink="http://www.w3.org/1999/xlink"><defs><path d="M22 7a1 1 0 0 1-1 1v10h1v2h-9v2h-2v-2H2v-2h1V8a1 1 0 0 1-1-1V4a1 1 0 0 1 1-1h18a1 1 0 0 1 1 1v3zm-3 11V8H5v10h14zM7.334 16.333v-.666H6v-1.334h2.333a.334.334 0 0 0 0-.666h-.667a1.668 1.668 0 0 1-.333-3.3v-.7h1.332v.666H10v1.334H7.667a.333.333 0 1 0 0 .666h.667A1.67 1.67 0 0 1 10 14c0 .804-.574 1.477-1.335 1.633v.7H7.333zM14 12v5h-2v-5h2zm3-2v7h-2v-7h2zM4 5v1h16V5H4z" id="a"/></defs><use fill="#4A4A4A" xlink:href="#a" fill-rule="evenodd"/></svg>