<svg width="24" height="24" xmlns="http://www.w3.org/2000/svg" xmlns:xlink="http://www.w3.org/1999/xlink"><defs><path d="M11.083 11.542a2.296 2.296 0 0 1-1.833 2.245v.963H7.417v-.917H5.583V12h3.209a.459.459 0 0 0 0-.917h-.917a2.295 2.295 0 0 1-2.292-2.291c0-1.108.789-2.033 1.834-2.246v-.963H9.25V6.5h1.833v1.833H7.875a.459.459 0 0 0 0 .917h.917a2.295 2.295 0 0 1 2.291 2.292zm-5.5 4.125a.92.92 0 0 1 .51.154l2.24 1.494v2.018a.917.917 0 0 1-.508-.154l-2.308-1.538-3.19 1.595a.91.91 0 0 1-.892-.04.92.92 0 0 1-.435-.78v-16.5a.916.916 0 0 1 1.326-.82l3.191 1.596 2.308-1.538a.917.917 0 0 1 1.017 0l2.307 1.538 3.191-1.596a.917.917 0 0 1 1.327.82v6.417h-1.834V3.401l-2.34 1.168a.918.918 0 0 1-.918-.056L8.333 3.019l-2.24 1.494a.918.918 0 0 1-.92.056l-2.34-1.168v13.532l2.34-1.17a.92.92 0 0 1 .41-.096zm11-5.5A6.424 6.424 0 0 1 23 16.583 6.424 6.424 0 0 1 16.583 23a6.424 6.424 0 0 1-6.416-6.417 6.424 6.424 0 0 1 6.416-6.416zm0 11a4.589 4.589 0 0 0 4.584-4.584A4.589 4.589 0 0 0 16.583 12 4.589 4.589 0 0 0 12 16.583a4.589 4.589 0 0 0 4.583 4.584zm.917-8.25v2.75h1.833V17.5h-3.666v-4.583H17.5z" id="a"/></defs><use fill="#4A4A4A" xlink:href="#a" fill-rule="evenodd"/></svg>