<svg width="24" height="24" xmlns="http://www.w3.org/2000/svg" xmlns:xlink="http://www.w3.org/1999/xlink"><defs><path d="M20 21H4v-2h16v2zM5.895 10h12.21l.778 7H5.117l.778-7zM7 5.619l.553.276c.281.14.613.14.894 0L9 5.619V8H7V5.619zM14 4h4v1h-4V4zm6.894 13H21a1 1 0 0 1 1 1v4a1 1 0 0 1-1 1H3a1 1 0 0 1-1-1v-4a1 1 0 0 1 1-1h.106l.9-8.11A1 1 0 0 1 5 8V4a1 1 0 0 1 1.447-.894L8 3.882l1.553-.776A.998.998 0 0 1 11 4v4h4V7h-2a1 1 0 0 1-1-1V3a1 1 0 0 1 1-1h6a1 1 0 0 1 1 1v3a1 1 0 0 1-1 1h-2v1h2a1 1 0 0 1 .994.89l.9 8.11zM7 13h4v-2H7v2zm6-2a1 1 0 1 0 0 2 1 1 0 0 0 0-2zm3 0a1 1 0 1 0 0 2 1 1 0 0 0 0-2zm-3 3a1 1 0 1 0 0 2 1 1 0 0 0 0-2zm3 0a1 1 0 1 0 0 2 1 1 0 0 0 0-2z" id="a"/></defs><use fill="#4A4A4A" xlink:href="#a" fill-rule="evenodd"/></svg>