<svg width="24" height="24" xmlns="http://www.w3.org/2000/svg" xmlns:xlink="http://www.w3.org/1999/xlink"><defs><path d="M2 21c0-.556.444-1 .992-1h18.016c.537 0 .992.448.992 1 0 .556-.444 1-.992 1H2.992C2.455 22 2 21.552 2 21zM21.556 7.385c.359.208.524.609.406.983-.118.375-.491.632-.915.632H2.952c-.424 0-.797-.257-.914-.632-.118-.374.047-.775.405-.983l9.048-5.25c.31-.18.707-.18 1.017 0l9.048 5.25zM6.243 7.25h11.513L12 3.91 6.243 7.25zM7.5 18h-3c-.552 0-1-.391-1-.875v-5.25c0-.483.448-.875 1-.875h3c.553 0 1 .392 1 .875v5.25c0 .484-.447.875-1 .875zm-2-5.25v3.5h1v-3.5h-1zm8 5.25h-3c-.552 0-1-.391-1-.875v-5.25c0-.483.448-.875 1-.875h3c.553 0 1 .392 1 .875v5.25c0 .484-.447.875-1 .875zm-2-5.25v3.5h1v-3.5h-1zm8 5.25h-3c-.552 0-1-.391-1-.875v-5.25c0-.483.448-.875 1-.875h3c.553 0 1 .392 1 .875v5.25c0 .484-.447.875-1 .875zm-2-5.25v3.5h1v-3.5h-1z" id="a"/></defs><use fill="#4A4A4A" xlink:href="#a" fill-rule="evenodd"/></svg>