<svg width="24" height="24" xmlns="http://www.w3.org/2000/svg" xmlns:xlink="http://www.w3.org/1999/xlink"><defs><path d="M18.417 2.833a2.753 2.753 0 0 1 2.75 2.75 2.753 2.753 0 0 1-2.75 2.75 2.753 2.753 0 0 1-2.75-2.75 2.753 2.753 0 0 1 2.75-2.75m0 7.334a4.589 4.589 0 0 1-4.584-4.584A4.589 4.589 0 0 1 18.417 1 4.589 4.589 0 0 1 23 5.583a4.589 4.589 0 0 1-4.583 4.584zm1.565 4.852l2.75 2.75a.915.915 0 0 1-.308 1.499l-9.167 3.667a.926.926 0 0 1-.662.006l-6.18-2.316a.913.913 0 0 1-.832.542H1.917A.916.916 0 0 1 1 20.25v-7.333c0-.506.41-.917.917-.917h3.666c.388 0 .715.243.85.584l4.36-1.453a.915.915 0 0 1 1.11.46l.917 1.832a.917.917 0 0 1-.172 1.06l-1.042 1.041 1.467.979 6.008-1.717a.916.916 0 0 1 .9.233zm-7.076 6.082l7.546-3.019-1.385-1.385-5.898 1.685a.915.915 0 0 1-.76-.12L9.657 16.43a.915.915 0 0 1-.14-1.41l1.367-1.366-.266-.532L6.5 14.494v4.204l6.406 2.403zM2.833 13.833v5.5h1.834v-5.5H2.833z" id="a"/></defs><use fill="#4A4A4A" xlink:href="#a" fill-rule="evenodd"/></svg>