<svg width="24" height="24" xmlns="http://www.w3.org/2000/svg" xmlns:xlink="http://www.w3.org/1999/xlink"><defs><path d="M8.981 16.301l-1.296-1.298 7.334-7.348 1.296 1.298-7.334 7.348zm.269-4.323a2.756 2.756 0 0 1 0-5.51 2.756 2.756 0 0 1 0 5.51zm5.5 0a2.756 2.756 0 0 1 0 5.511 2.756 2.756 0 0 1 0-5.511zm0 3.674a.918.918 0 0 0 0-1.837.919.919 0 0 0 0 1.837zm-5.5-7.348a.919.919 0 0 0 0 1.837.918.918 0 0 0 0-1.837zm-1.358-4.54a9.204 9.204 0 0 0-1.435.898L5.347 3.2c.54-.41 1.117-.772 1.722-1.076l.823 1.64zM3.442 8.68a8.983 8.983 0 0 0-.457 1.629l-1.804-.33c.122-.67.307-1.328.55-1.96l1.711.661zM5.21 5.808c-.379.418-.72.875-1.017 1.355l-1.56-.965a11.02 11.02 0 0 1 1.22-1.624L5.21 5.808zm16.121.33l-1.553.976a9.26 9.26 0 0 0-1.025-1.348l1.35-1.243c.457.499.87 1.043 1.228 1.616zm-.325 4.115a9.168 9.168 0 0 0-.469-1.627l1.708-.67c.246.63.435 1.286.562 1.952l-1.801.345zm-9.88-7.418a9.153 9.153 0 0 0-1.662.313L8.96 1.383a10.991 10.991 0 0 1 1.994-.377l.172 1.83zm3.849-1.47l-.494 1.768a9.265 9.265 0 0 0-1.663-.304L12.979 1c.675.059 1.346.182 1.996.365zm3.624 1.794l-1.1 1.469a9.15 9.15 0 0 0-1.44-.888l.811-1.647c.606.3 1.188.66 1.73 1.066zm-4.082 17.654a9.211 9.211 0 0 0 1.576-.613l.819 1.643a10.97 10.97 0 0 1-1.892.736l-.503-1.766zm5.28-4.003c.297-.48.552-.99.754-1.516l1.71.665a11.105 11.105 0 0 1-.906 1.82l-1.558-.969zm-2.268 2.495a9.2 9.2 0 0 0 1.248-1.142l1.356 1.238c-.456.5-.96.96-1.498 1.37l-1.106-1.466zm3.638-7.327L23 11.936v.042c0 .68-.061 1.361-.184 2.023l-1.803-.335c.101-.553.154-1.12.154-1.688zM3.455 15.312a9.27 9.27 0 0 0 .758 1.514l-1.556.97a10.916 10.916 0 0 1-.91-1.816l1.708-.668zm-.622-3.315c.002.568.055 1.136.159 1.688l-1.802.339A11.123 11.123 0 0 1 1 12.001l1.833-.004zm8.33 9.128c.558.052 1.137.05 1.693-.001l.169 1.83a11.117 11.117 0 0 1-2.027.001l.165-1.83zm-7.28-1.708l1.352-1.241c.382.418.803.802 1.252 1.141l-1.104 1.466a11.135 11.135 0 0 1-1.5-1.366zm3.226 2.436l.817-1.645a9.036 9.036 0 0 0 1.575.61l-.498 1.768a10.963 10.963 0 0 1-1.894-.733z" id="a"/></defs><use fill="#4A4A4A" xlink:href="#a" fill-rule="evenodd"/></svg>