<svg width="24" height="24" xmlns="http://www.w3.org/2000/svg" xmlns:xlink="http://www.w3.org/1999/xlink"><defs><path d="M3 4.994v14.012C3 20.106 3.894 21 4.994 21h14.012c1.1 0 1.994-.894 1.994-1.994V4.994C21 3.894 20.106 3 19.006 3H4.994C3.894 3 3 3.894 3 4.994zM13 9H7a2 2 0 0 0-2 2v6a2 2 0 0 0 2 2h10a2 2 0 0 0 2-2v-6a2 2 0 0 0-2-2h-4zM1 4.994A3.996 3.996 0 0 1 4.994 1h14.012A3.996 3.996 0 0 1 23 4.994v14.012A3.996 3.996 0 0 1 19.006 23H4.994A3.996 3.996 0 0 1 1 19.006V4.994zM10.62 3H5v.893a2.81 2.81 0 1 0 5.62 0V3zM7 3h1.62v.893a.81.81 0 1 1-1.62 0V3zm12.02 0H13.4v.893a2.81 2.81 0 1 0 5.62 0V3zM15.4 3h1.62v.893a.81.81 0 1 1-1.62 0V3zM7 11h2v2H7v-2zm0 4h2v2H7v-2zm4 0h2v2h-2v-2zm4 0h2v2h-2v-2zm-4-4h2v2h-2v-2zm4 0h2v2h-2v-2z" id="a"/></defs><use fill="#4A4A4A" xlink:href="#a"/></svg>