<svg width="24" height="24" xmlns="http://www.w3.org/2000/svg" xmlns:xlink="http://www.w3.org/1999/xlink"><defs><path d="M8.333 17.5h-5.5V8.333h16.5v-2.75c0-1.01-.822-1.833-1.833-1.833h-.917V1H14.75v4.583h-.917V3.75H7.417V1H5.583v4.583h-.916V3.75H2.833A1.836 1.836 0 0 0 1 5.583V17.5c0 1.011.822 1.833 1.833 1.833h5.5V17.5zm8.25-5.5A4.589 4.589 0 0 0 12 16.583a4.589 4.589 0 0 0 4.583 4.584 4.589 4.589 0 0 0 4.584-4.584A4.589 4.589 0 0 0 16.583 12m0 11a6.424 6.424 0 0 1-6.416-6.417 6.424 6.424 0 0 1 6.416-6.416A6.424 6.424 0 0 1 23 16.583 6.424 6.424 0 0 1 16.583 23zm2.75-5.5v-1.833H17.5v-2.75h-1.833V17.5h3.666z" id="a"/></defs><use fill="#4A4A4A" xlink:href="#a" fill-rule="evenodd"/></svg>