<svg width="24" height="24" xmlns="http://www.w3.org/2000/svg" xmlns:xlink="http://www.w3.org/1999/xlink"><defs><path d="M3.889 10.5a6.618 6.618 0 0 0 6.611 6.611c.321 0 .635-.031.944-.075v1.908c-.31.034-.625.056-.944.056C5.814 19 2 15.186 2 10.5S5.814 2 10.5 2 19 5.814 19 10.5c0 .32-.02.634-.056.944h-1.908a6.69 6.69 0 0 0 .075-.944A6.618 6.618 0 0 0 10.5 3.889 6.618 6.618 0 0 0 3.889 10.5zm16.76 5.648L22 17.5 17.5 22 13 17.5l1.352-1.352 2.192 2.192V13h1.912v5.34l2.192-2.192zM11.332 6v.833H13V8.5h-2.917a.417.417 0 0 0 0 .833h.834c1.148 0 2.083.935 2.083 2.084a2.087 2.087 0 0 1-1.667 2.041v.875H9.667V13.5H8v-1.667h2.917a.417.417 0 0 0 0-.833h-.834A2.086 2.086 0 0 1 8 8.917c0-1.007.717-1.848 1.667-2.042V6h1.666z" id="a"/></defs><use fill="#4A4A4A" xlink:href="#a" fill-rule="evenodd"/></svg>