<?xml version="1.0" encoding="utf-8"?>
<!-- Generator: Adobe Illustrator 24.1.0, SVG Export Plug-In . SVG Version: 6.00 Build 0)  -->
<svg version="1.1" id="Layer_1" xmlns="http://www.w3.org/2000/svg" xmlns:xlink="http://www.w3.org/1999/xlink" x="0px" y="0px"
	 viewBox="0 0 500 303.47" style="enable-background:new 0 0 500 303.47;" xml:space="preserve">
<style type="text/css">
	.st0{fill-rule:evenodd;clip-rule:evenodd;fill:#FFFFFF;}
	.st1{fill-rule:evenodd;clip-rule:evenodd;fill:#DC2627;}
	.st2{fill:#FFFFFF;}
	.st3{fill-rule:evenodd;clip-rule:evenodd;fill:#1E4079;}
	.st4{fill:#1E4079;}
</style>
<g>
	<path class="st3" d="M145.54,231.69l-0.75,0.72c-11.69,11.92-25.2,18.21-39.14,18.21c-29.09,0-50.2-21.83-50.2-51.94
		c0-30.05,21.11-51.91,50.2-51.91c13.94,0,27.45,6.32,39.14,18.28l0.75,0.71l18.7-22.62l-0.5-0.61
		c-15.55-18.4-34.23-27.33-57.19-27.33c-23.01,0-44.08,7.76-59.25,21.73c-16.51,15.13-25.19,36.48-25.19,61.76
		c0,25.28,8.68,46.69,25.19,61.81c15.17,14.05,36.23,21.75,59.25,21.75c22.95,0,41.64-8.95,57.19-27.34l0.5-0.57L145.54,231.69z"/>
	<rect x="183.14" y="117.81" class="st3" width="33.05" height="161.35"/>
	<path class="st3" d="M345.66,244.07c-8.82,5.37-17.02,8.08-24.4,8.08c-10.68,0-15.53-5.64-15.53-18.21v-85.63h33.69v-30.37h-33.69
		V67.75L273.36,85.1v32.86h-27.95v30.37h27.95v91.08c0,24.8,14.69,41.77,36.64,42.22c14.91,0.3,23.87-4.15,29.31-7.41l0.35-0.23
		l7.94-31.11L345.66,244.07z"/>
	<rect x="373.02" y="117.81" class="st3" width="33.09" height="161.35"/>
	<path class="st1" d="M425.39,89.52c-30.19-42.77-80.34-68.29-131.36-68.29c-51,0-101.15,25.51-131.3,68.29l-1.55,2.2h38.02
		l0.42-0.46c25.88-26.72,59.67-40.83,94.41-40.83c34.75,0,68.52,14.11,94.45,40.83l0.42,0.46h38L425.39,89.52z"/>
	<path class="st4" d="M475.1,82.5c0,8.26-6.3,14.54-14.55,14.54c-8.25,0-14.55-6.28-14.55-14.54c0-8.26,6.3-14.55,14.55-14.55
		C468.8,67.95,475.1,74.24,475.1,82.5 M477.88,82.5c0-9.83-7.5-17.33-17.34-17.33c-9.84,0-17.34,7.5-17.34,17.33
		c0,9.84,7.5,17.33,17.34,17.33C470.39,99.83,477.88,92.34,477.88,82.5 M468.47,78.42c0-3.94-2.83-5.71-6.19-5.71h-8.31v18.91h3.22
		v-7.3h3.65l3.69,7.3h3.79l-3.88-7.63C466.89,83.27,468.47,81.38,468.47,78.42 M465.2,78.51c0,1.88-1.29,2.7-3.03,2.7h-5v-5.39h5
		C463.91,75.82,465.2,76.74,465.2,78.51"/>
</g>
</svg>
